<svg xmlns="http://www.w3.org/2000/svg" width="42" height="42" viewBox="0 0 42 42"><defs><linearGradient id="blue" x1="0" y1="0" x2=".75" y2="1"><stop stop-color="#b5eeff"/><stop offset="1" stop-color="#42a9dc"/></linearGradient><linearGradient id="mint" x1="0" y1="0" x2=".75" y2="1"><stop stop-color="#c3f3d8"/><stop offset="1" stop-color="#64bbab"/></linearGradient><linearGradient id="gold" x1="0" y1="0" x2=".75" y2="1"><stop stop-color="#fff3ac"/><stop offset="1" stop-color="#efbf53"/></linearGradient><linearGradient id="pink" x1="0" y1="0" x2=".75" y2="1"><stop stop-color="#ffd0c7"/><stop offset="1" stop-color="#e98e9e"/></linearGradient><linearGradient id="paper" x1="0" y1="0" x2=".75" y2="1"><stop stop-color="#ffffff"/><stop offset="1" stop-color="#e4f2f7"/></linearGradient></defs><ellipse cx="21" cy="38" rx="14" ry="2" fill="#466b79" opacity=".1"/><g stroke-linecap="round" stroke-linejoin="round"><path d="m21 4 15 6v12c0 10-15 17-15 17S6 32 6 22V10z" fill="url(#blue)"/><path d="m21 9 10 4v9c0 6-10 12-10 12s-10-6-10-12v-9z" fill="url(#paper)"/><path d="m15 21 4 4 8-9" stroke="#62c79f" stroke-width="4" fill="none"/></g></svg>
